HIERARCHY
ROOT SpineBase
{
  OFFSET 0.000000 0.000000 0.000000
  CHANNELS 6 Xposition Yposition Zposition Zrotation Xrotation Yrotation
  JOINT SpineMid
  {
    OFFSET 0.000000 31.232826 -0.000000
    CHANNELS 3 Zrotation Xrotation Yrotation
    JOINT SpineShoulder
    {
      OFFSET -0.126353 23.227070 -0.689011
      CHANNELS 3 Zrotation Xrotation Yrotation
      JOINT Neck
      {
        OFFSET -0.111426 7.693739 -0.539034
        CHANNELS 3 Zrotation Xrotation Yrotation
        JOINT Head
        {
          OFFSET 0.215687 13.524616 -1.419786
          CHANNELS 3 Zrotation Xrotation Yrotation
          End Site
          {
            OFFSET 0 0 0
          }
        }
      }
      JOINT ShoulderLeft
      {
        OFFSET -17.135844 -2.913963 0.150708
        CHANNELS 3 Zrotation Xrotation Yrotation
        JOINT ElbowLeft
        {
          OFFSET -4.210846 -27.171594 1.598972
          CHANNELS 3 Zrotation Xrotation Yrotation
          JOINT WristLeft
          {
            OFFSET -3.398760 -23.411891 -5.612095
            CHANNELS 3 Zrotation Xrotation Yrotation
            JOINT HandLeft
            {
              OFFSET 0.934871 -5.582403 -1.323651
              CHANNELS 3 Zrotation Xrotation Yrotation
              JOINT HandTipLeft
              {
                OFFSET -0.581271 -7.388731 -0.794939
                CHANNELS 3 Zrotation Xrotation Yrotation
                End Site
                {
                  OFFSET 0 0 0
                }
              }
              JOINT ThumbLeft
              {
                OFFSET 3.506504 0.524509 -1.969322
                CHANNELS 3 Zrotation Xrotation Yrotation
                End Site
                {
                  OFFSET 0 0 0
                }
              }
            }
          }
        }
      }
      JOINT ShoulderRight
      {
        OFFSET 17.406234 -3.552436 -2.946068
        CHANNELS 3 Zrotation Xrotation Yrotation
        JOINT ElbowRight
        {
          OFFSET 5.834593 -28.029761 1.518611
          CHANNELS 3 Zrotation Xrotation Yrotation
          JOINT WristRight
          {
            OFFSET 1.371455 -23.188870 -7.095587
            CHANNELS 3 Zrotation Xrotation Yrotation
            JOINT HandRight
            {
              OFFSET -1.592312 -6.507483 -1.921653
              CHANNELS 3 Zrotation Xrotation Yrotation
              JOINT HandTipRight
              {
                OFFSET -0.651785 -4.753019 0.744457
                CHANNELS 3 Zrotation Xrotation Yrotation
                End Site
                {
                  OFFSET 0 0 0
                }
              }
              JOINT ThumbRight
              {
                OFFSET 1.833799 0.502568 -3.208050
                CHANNELS 3 Zrotation Xrotation Yrotation
                End Site
                {
                  OFFSET 0 0 0
                }
              }
            }
          }
        }
      }
    }
  }
  JOINT HipLeft
  {
    OFFSET -8.481088 1.114805 -2.688746
    CHANNELS 3 Zrotation Xrotation Yrotation
    JOINT KneeLeft
    {
      OFFSET -3.872519 -35.487393 -0.638046
      CHANNELS 3 Zrotation Xrotation Yrotation
      JOINT AnkleLeft
      {
        OFFSET -1.466809 -35.908785 2.924983
        CHANNELS 3 Zrotation Xrotation Yrotation
        JOINT FootLeft
        {
          OFFSET -2.032745 -5.340525 -11.520753
          CHANNELS 3 Zrotation Xrotation Yrotation
          End Site
          {
            OFFSET 0 0 0
          }
        }
      }
    }
  }
  JOINT HipRight
  {
    OFFSET 6.929024 0.405654 -4.456026
    CHANNELS 3 Zrotation Xrotation Yrotation
    JOINT KneeRight
    {
      OFFSET 1.222658 -34.360373 1.463631
      CHANNELS 3 Zrotation Xrotation Yrotation
      JOINT AnkleRight
      {
        OFFSET 0.917225 -37.210872 6.486677
        CHANNELS 3 Zrotation Xrotation Yrotation
        JOINT FootRight
        {
          OFFSET -0.872340 -6.441074 -9.598790
          CHANNELS 3 Zrotation Xrotation Yrotation
          End Site
          {
            OFFSET 0 0 0
          }
        }
      }
    }
  }
}
MOTION
Frames: 5
Frame Time: 0.033333
85.389813 79.897949 384.106734 -0.283756 0.292311 6.661573 0.247935 -0.323251 -6.660149 -0.000000 0.000000 0.000000 1.495019 -1.436965 0.198400 0.000000 0.000000 0.000000 -21.449021 1.114762 -1.204093 -44.493380 35.597365 31.005597 0.959837 10.194456 24.016847 14.594457 -8.459828 -16.113532 0.000000 0.000000 0.000000 0.000000 0.000000 0.000000 0.793273 -0.685171 -0.094735 -0.700478 -0.493775 0.005998 0.550873 -2.563947 0.842548 7.313504 14.831600 -2.371099 0.000000 0.000000 0.000000 0.000000 0.000000 0.000000 0.247935 -0.323251 -6.660149 -0.030714 -1.379916 0.053445 4.378001 -26.762799 5.390757 0.000000 0.000000 0.000000 0.247935 -0.323251 -6.660149 -0.000000 0.000000 0.000000 -0.273035 -11.305722 2.246427 0.000000 0.000000 0.000000
85.409070 79.876423 384.172036 -0.258616 0.312141 6.602046 0.221018 -0.339802 -6.600687 -0.000000 0.000000 0.000000 1.364853 -1.757550 0.191981 0.000000 0.000000 0.000000 -23.506638 2.581404 -1.227955 -58.070038 34.645090 39.544929 6.181732 5.397640 26.029857 15.447037 -3.766034 -16.562635 0.000000 0.000000 0.000000 0.000000 0.000000 0.000000 0.700111 -0.748590 -0.113137 -0.617911 -0.787044 0.006470 0.305028 -0.460939 0.490416 8.214358 14.183512 -1.987421 0.000000 0.000000 0.000000 0.000000 0.000000 0.000000 0.221018 -0.339802 -6.600687 0.109012 -1.579779 0.074837 3.250747 -22.672729 4.963305 0.000000 0.000000 0.000000 0.221018 -0.339802 -6.600687 -0.000000 0.000000 0.000000 -1.506132 -15.737277 5.250429 0.000000 0.000000 0.000000
85.439144 79.847439 384.217738 -0.212918 0.286221 6.670350 0.178233 -0.309014 -6.669337 -0.000000 0.000000 0.000000 1.163399 -1.806626 0.169041 0.000000 0.000000 0.000000 -24.349450 3.468528 -1.205788 -66.949824 33.979431 45.050642 9.993977 1.247339 26.931445 15.569462 -1.656570 -16.863211 0.000000 0.000000 0.000000 0.000000 0.000000 0.000000 0.682908 -0.916395 -0.148049 -0.613678 -0.931947 0.028757 0.805735 0.929933 0.076537 7.045343 13.940407 -1.587407 0.000000 0.000000 0.000000 0.000000 0.000000 0.000000 0.178233 -0.309014 -6.669337 0.209577 -1.746164 0.091491 1.592467 -14.027639 3.205645 0.000000 0.000000 0.000000 0.178233 -0.309014 -6.669337 -0.000000 0.000000 0.000000 -2.422118 -16.447722 6.979433 0.000000 0.000000 0.000000
85.473715 79.815916 384.234926 -0.182601 0.236164 6.867958 0.153051 -0.256304 -6.867239 -0.000000 0.000000 0.000000 1.070807 -1.767922 0.156902 0.000000 0.000000 0.000000 -20.674541 3.676225 -1.100085 -75.903369 32.276891 47.071852 13.965835 -0.426662 27.905491 16.034983 -0.299269 -16.491175 0.000000 0.000000 0.000000 0.000000 0.000000 0.000000 0.640979 -1.049366 -0.177547 -0.557982 -0.987220 0.043749 0.685024 2.395710 -0.198312 5.832731 11.211251 -0.885288 0.000000 0.000000 0.000000 0.000000 0.000000 0.000000 0.153051 -0.256304 -6.867239 0.232375 -1.839746 0.097696 0.792631 -9.829142 2.843366 0.000000 0.000000 0.000000 0.153051 -0.256304 -6.867239 -0.000000 0.000000 0.000000 -3.359948 -12.229438 7.464209 0.000000 0.000000 0.000000
85.510227 79.783192 384.231524 -0.159474 0.178439 7.213322 0.135807 -0.197050 -7.212840 -0.000000 0.000000 0.000000 1.036059 -1.679186 0.150521 0.000000 0.000000 0.000000 -12.414995 1.505260 -0.790292 -86.930167 31.784294 49.408494 16.626007 -1.658498 27.542096 17.100497 -0.132042 -15.518588 0.000000 0.000000 0.000000 0.000000 0.000000 0.000000 0.600952 -1.266784 -0.224119 -0.441036 -0.856317 0.062599 0.283161 3.192401 -0.237039 7.125711 9.287372 -0.391401 0.000000 0.000000 0.000000 0.000000 0.000000 0.000000 0.135807 -0.197050 -7.212840 0.179065 -1.871622 0.093851 0.464396 -7.970866 2.832097 0.000000 0.000000 0.000000 0.135807 -0.197050 -7.212840 -0.000000 0.000000 0.000000 -3.656291 -13.323547 8.219462 0.000000 0.000000 0.000000
